<?xml version="1.0" encoding="utf-8"?><svg xmlns="http://www.w3.org/2000/svg" xmlns:xlink="http://www.w3.org/1999/xlink"><symbol id="double-up" viewBox="0 0 108.2 108.2">
			<line stroke-width="3.5" stroke-linecap="round" stroke-miterlimit="10" x1="36.5" y1="50.4" x2="54.1" y2="32.8"/>
		
			<line stroke-width="3.5" stroke-linecap="round" stroke-miterlimit="10" x1="54.1" y1="32.8" x2="71.7" y2="50.4"/>
		
			<line stroke-width="3.5" stroke-linecap="round" stroke-miterlimit="10" x1="36.5" y1="69.6" x2="54.1" y2="52"/>
		
			<line stroke-width="3.5" stroke-linecap="round" stroke-miterlimit="10" x1="54.1" y1="52" x2="71.7" y2="69.6"/>
			<path stroke-width="2" stroke-miterlimit="10" d="M54.1,1c29.3,0,53.1,23.8,53.1,53.1s-23.8,53.1-53.1,53.1
			S1,83.4,1,54.1S24.8,1,54.1,1z M54.1,106.2c28.7,0,52.1-23.4,52.1-52.1S82.8,2,54.1,2S2,25.4,2,54.1S25.4,106.2,54.1,106.2z"/>
		</symbol><symbol id="double-down" viewBox="0 0 108.2 108.2">
			<line stroke-width="3.5" stroke-linecap="round" stroke-miterlimit="10" x1="71.7" y1="57.7" x2="54.1" y2="75.3"/>
		
			<line stroke-width="3.5" stroke-linecap="round" stroke-miterlimit="10" x1="54.1" y1="75.3" x2="36.5" y2="57.7"/>
		
			<line stroke-width="3.5" stroke-linecap="round" stroke-miterlimit="10" x1="71.7" y1="38.6" x2="54.1" y2="56.2"/>
		
			<line stroke-width="3.5" stroke-linecap="round" stroke-miterlimit="10" x1="54.1" y1="56.2" x2="36.5" y2="38.6"/>
			<path stroke-width="2" stroke-miterlimit="10" d="M54.1,107.2C24.8,107.2,1,83.4,1,54.1S24.8,1,54.1,1
			s53.1,23.8,53.1,53.1S83.4,107.2,54.1,107.2z M54.1,2C25.4,2,2,25.4,2,54.1s23.4,52.1,52.1,52.1s52.1-23.4,52.1-52.1S82.8,2,54.1,2
			z"/>
		</symbol></svg>